<svg width="122" height="40" viewBox="0 0 122 40" fill="none" xmlns="http://www.w3.org/2000/svg">
<path d="M35.9744 24.6033V9.80283H45.9469V12.3825H39.1032V15.9089H45.4334V18.4885H39.1032V22.022H45.9754V24.6017H35.9736L35.9744 24.6033Z" fill="white"/>
<path d="M53.0155 22.175C52.9382 22.1892 52.8278 22.2098 52.6834 22.2366C52.539 22.2634 52.3947 22.276 52.2495 22.276C52.042 22.276 51.8606 22.2445 51.7036 22.1821C51.5466 22.1198 51.4251 22.0102 51.3383 21.8532C51.2515 21.697 51.2081 21.4761 51.2081 21.1921V15.8158H53.2964V13.5035H51.2081V10.8442H48.1298V13.5035H46.612V15.8158H48.1298V21.5968C48.1251 22.3241 48.2766 22.9261 48.585 23.4033C48.8935 23.8806 49.3258 24.2317 49.882 24.4581C50.4382 24.6845 51.0874 24.7831 51.8298 24.7547C52.2298 24.7405 52.569 24.7003 52.8491 24.6356C53.1283 24.5709 53.3453 24.5141 53.4991 24.466L53.0155 22.175Z" fill="white"/>
<path d="M58.0109 18.1856V24.6025H54.9326V9.80283H57.9241V15.4608H58.0543C58.3043 14.806 58.709 14.2916 59.2684 13.9177C59.8269 13.5446 60.5283 13.3576 61.3716 13.3576C62.1424 13.3576 62.8153 13.5248 63.3912 13.8601C63.9671 14.1954 64.4152 14.6742 64.7355 15.2983C65.0558 15.9223 65.2136 16.6678 65.2088 17.5348V24.6025H62.1305V18.0838C62.1353 17.3999 61.9633 16.8674 61.6138 16.4871C61.2643 16.1069 60.7768 15.916 60.1504 15.916C59.7315 15.916 59.3615 16.0051 59.0412 16.1834C58.7209 16.3617 58.47 16.6204 58.2893 16.9605C58.1087 17.3005 58.0156 17.7083 58.0109 18.1856Z" fill="white"/>
<path d="M77.5662 18.995C77.5662 18.0507 77.4337 17.2255 77.1686 16.5203C76.9035 15.8142 76.5335 15.2281 76.0594 14.7602C75.5845 14.2932 75.0307 13.9422 74.3972 13.7086C73.7637 13.4751 73.0805 13.3584 72.3484 13.3584C71.2597 13.3584 70.3115 13.599 69.5044 14.081C68.6974 14.563 68.0725 15.2352 67.6292 16.0974C67.1858 16.9597 66.9641 17.9616 66.9641 19.1039C66.9641 20.2462 67.1858 21.2875 67.6292 22.1427C68.0725 22.9979 68.7045 23.6582 69.5265 24.1228C70.3477 24.5875 71.3299 24.8202 72.4715 24.8202C73.3866 24.8202 74.1952 24.679 74.8958 24.3974C75.5971 24.1157 76.1699 23.7205 76.6156 23.2124C77.0613 22.7044 77.3564 22.108 77.5007 21.424L74.6536 21.2363C74.5479 21.5155 74.3932 21.7522 74.1913 21.9447C73.9893 22.1372 73.7456 22.2823 73.4615 22.3786C73.1775 22.4748 72.8644 22.5229 72.522 22.5229C72.006 22.5229 71.5611 22.4149 71.1848 22.1979C70.8093 21.981 70.5189 21.6725 70.3138 21.2733C70.1087 20.8734 70.0069 20.3992 70.0069 19.8494V19.8423H77.5662V18.995ZM71.1595 15.9783C71.5185 15.7637 71.9319 15.6564 72.3989 15.6564C72.8659 15.6564 73.2407 15.7542 73.5807 15.9491C73.9207 16.144 74.1866 16.413 74.379 16.7546C74.5715 17.0969 74.6678 17.489 74.6678 17.9324H70.0109C70.0298 17.534 70.1308 17.1687 70.3178 16.8374C70.5205 16.4784 70.8006 16.1929 71.1595 15.9783Z" fill="white"/>
<path d="M79.3941 24.6033V13.5035H82.3785V15.4403H82.4945C82.6964 14.7516 83.0365 14.2301 83.5137 13.8759C83.9902 13.5217 84.5401 13.345 85.161 13.345C85.3148 13.345 85.4813 13.3544 85.6596 13.3742C85.8379 13.3939 85.9941 13.4199 86.1298 13.4538V16.1858C85.9854 16.1424 85.785 16.1037 85.5302 16.0698C85.2746 16.0359 85.0411 16.0193 84.8296 16.0193C84.3768 16.0193 83.9729 16.1171 83.6195 16.312C83.2652 16.5068 82.986 16.7782 82.7809 17.1253C82.5757 17.4725 82.474 17.8724 82.474 18.3252V24.6048H79.3957L79.3941 24.6033Z" fill="white"/>
<path d="M90.617 9.80283V24.6025H87.5387V9.80283H90.617Z" fill="white"/>
<path d="M92.9064 24.6033V13.5035H95.9847V24.6033H92.9064Z" fill="white"/>
<path d="M101.348 18.1856V24.6025H98.2694V13.5027H101.203V15.4608H101.334C101.579 14.8155 101.991 14.3035 102.569 13.9248C103.147 13.5469 103.848 13.3576 104.672 13.3576C105.443 13.3576 106.115 13.5264 106.689 13.8633C107.262 14.2009 107.708 14.6813 108.026 15.3046C108.344 15.9286 108.502 16.6717 108.502 17.534V24.6017H105.424V18.0831C105.429 17.4038 105.255 16.8729 104.903 16.4895C104.551 16.1069 104.067 15.9152 103.451 15.9152C103.037 15.9152 102.671 16.0043 102.356 16.1826C102.04 16.3609 101.794 16.6197 101.619 16.9597C101.443 17.2997 101.352 17.7083 101.348 18.1856Z" fill="white"/>
<path d="M117.657 24.6033H121.263L116.936 18.311L121.053 13.5027H117.519L113.964 17.7162H113.797V9.80283H110.719V24.6033H113.797V21.0785L114.632 20.1263L117.657 24.6033Z" fill="white"/>
<path d="M94.4464 12.1119C95.3095 12.1119 96.0092 11.4122 96.0092 10.5491C96.0092 9.68602 95.3095 8.98633 94.4464 8.98633C93.5833 8.98633 92.8836 9.68602 92.8836 10.5491C92.8836 11.4122 93.5833 12.1119 94.4464 12.1119Z" fill="white"/>
<path d="M17.7386 15.6792C17.3651 15.6792 16.9908 15.5363 16.7057 15.2512C16.1348 14.681 16.1348 13.7555 16.7057 13.1853L20.4835 9.4074C21.0537 8.83724 21.9792 8.83724 22.5493 9.4074C23.1203 9.97757 23.1203 10.9031 22.5493 11.4733L18.7715 15.2512C18.4864 15.5363 18.1121 15.6792 17.7386 15.6792Z" fill="#38FF9C"/>
<path d="M15 32C6.72888 32 0 25.2709 0 17.0004C0 8.72984 6.72888 2 15 2C23.2711 2 30 8.72905 30 17.0004C30 25.2717 23.2711 32 15 32ZM15 4.9219C8.34062 4.9219 2.92182 10.34 2.92182 17.0004C2.92182 23.6607 8.33983 29.0789 15 29.0789C21.6602 29.0789 27.0782 23.6607 27.0782 17.0004C27.0782 10.34 21.6594 4.9219 15 4.9219Z" fill="#38FF9C"/>
<path d="M8.48276 24.9061C8.10924 24.9061 7.73493 24.7632 7.44985 24.4781C6.8797 23.9079 6.87891 22.9824 7.44985 22.4122L11.2277 18.6343C11.7978 18.0641 12.7233 18.0633 13.2935 18.6343C13.8636 19.2052 13.8644 20.13 13.2935 20.7001L9.51566 24.4781C9.23058 24.7632 8.85628 24.9061 8.48276 24.9061Z" fill="#38FF9C"/>
<path d="M14.6731 11.741C12.0616 11.9281 9.94999 14.0287 9.7731 16.6419C9.76362 16.7832 9.70202 16.9167 9.60095 17.017L7.47907 19.1421C7.35904 19.2629 7.15135 19.2084 7.10792 19.0434C6.93577 18.3855 6.82916 17.6795 6.82916 16.9775C6.82916 12.4604 10.5036 8.78592 15.0205 8.78592C15.7565 8.78592 16.4704 8.88384 17.1495 9.06626C17.2869 9.10338 17.3319 9.27553 17.2316 9.37661L15.0387 11.5712C14.9408 11.6691 14.8113 11.7307 14.6731 11.741Z" fill="#38FF9C"/>
<path d="M20.3777 16.9246L22.5723 14.7316C22.6725 14.6313 22.8455 14.6763 22.8826 14.8137C23.0658 15.4928 23.1629 16.2067 23.1629 16.9427C23.1629 21.4598 19.4885 25.1343 14.9716 25.1343C14.2703 25.1343 13.5644 25.0277 12.9058 24.8556C12.7407 24.8121 12.687 24.6052 12.8071 24.4844L14.9321 22.3625C15.0324 22.2622 15.1658 22.2006 15.3072 22.1903C17.921 22.0134 20.0208 19.9018 20.2079 17.2902C20.2182 17.152 20.2798 17.0225 20.3777 16.9246Z" fill="#38FF9C"/>
<path d="M67.2428 30.832C67.1906 30.6506 67.1172 30.4902 67.0228 30.351C66.9283 30.2093 66.8127 30.09 66.676 29.9931C66.5418 29.8936 66.3876 29.8178 66.2136 29.7656C66.0421 29.7134 65.852 29.6873 65.6432 29.6873C65.2529 29.6873 64.9098 29.7843 64.614 29.9782C64.3207 30.1721 64.092 30.4542 63.928 30.8246C63.7639 31.1925 63.6819 31.6424 63.6819 32.1744C63.6819 32.7063 63.7626 33.1587 63.9242 33.5316C64.0858 33.9045 64.3145 34.1891 64.6103 34.3855C64.9061 34.5794 65.2554 34.6763 65.6581 34.6763C66.0235 34.6763 66.3354 34.6117 66.594 34.4824C66.855 34.3507 67.0538 34.1655 67.1906 33.9268C67.3298 33.6882 67.3994 33.4061 67.3994 33.0804L67.7275 33.1289H65.7587V31.9134H68.9542V32.8754C68.9542 33.5465 68.8125 34.1232 68.5292 34.6055C68.2458 35.0852 67.8555 35.4556 67.3583 35.7166C66.8612 35.9751 66.2919 36.1044 65.6506 36.1044C64.9347 36.1044 64.3058 35.9466 63.7639 35.6309C63.222 35.3127 62.7994 34.8615 62.4961 34.2773C62.1954 33.6907 62.045 32.9947 62.045 32.1893C62.045 31.5703 62.1345 31.0185 62.3134 30.5337C62.4949 30.0465 62.7484 29.6339 63.0741 29.2958C63.3997 28.9577 63.7788 28.7005 64.2113 28.524C64.6439 28.3475 65.1124 28.2592 65.6171 28.2592C66.0496 28.2592 66.4523 28.3226 66.8251 28.4494C67.198 28.5737 67.5286 28.7502 67.817 28.9789C68.1078 29.2076 68.3452 29.4798 68.5292 29.7955C68.7131 30.1087 68.8312 30.4542 68.8834 30.832H67.2428ZM72.5149 36.1119C71.9357 36.1119 71.4348 35.9888 71.0122 35.7427C70.5921 35.4941 70.2677 35.1486 70.039 34.7061C69.8103 34.2612 69.696 33.7454 69.696 33.1587C69.696 32.5671 69.8103 32.0501 70.039 31.6076C70.2677 31.1626 70.5921 30.8171 71.0122 30.571C71.4348 30.3224 71.9357 30.1982 72.5149 30.1982C73.0941 30.1982 73.5937 30.3224 74.0138 30.571C74.4364 30.8171 74.762 31.1626 74.9907 31.6076C75.2194 32.0501 75.3338 32.5671 75.3338 33.1587C75.3338 33.7454 75.2194 34.2612 74.9907 34.7061C74.762 35.1486 74.4364 35.4941 74.0138 35.7427C73.5937 35.9888 73.0941 36.1119 72.5149 36.1119ZM72.5223 34.8814C72.7858 34.8814 73.0058 34.8068 73.1823 34.6577C73.3588 34.506 73.4918 34.2997 73.5813 34.0387C73.6733 33.7777 73.7192 33.4806 73.7192 33.1475C73.7192 32.8145 73.6733 32.5174 73.5813 32.2564C73.4918 31.9954 73.3588 31.7891 73.1823 31.6374C73.0058 31.4858 72.7858 31.41 72.5223 31.41C72.2563 31.41 72.0326 31.4858 71.8512 31.6374C71.6722 31.7891 71.5367 31.9954 71.4447 32.2564C71.3552 32.5174 71.3105 32.8145 71.3105 33.1475C71.3105 33.4806 71.3552 33.7777 71.4447 34.0387C71.5367 34.2997 71.6722 34.506 71.8512 34.6577C72.0326 34.8068 72.2563 34.8814 72.5223 34.8814ZM81.3115 30.2727L79.3092 36H77.5195L75.5171 30.2727H77.1951L78.3845 34.3706H78.4442L79.6299 30.2727H81.3115ZM84.3399 36.1119C83.7508 36.1119 83.2437 35.9925 82.8186 35.7539C82.396 35.5128 82.0704 35.1722 81.8417 34.7322C81.613 34.2898 81.4986 33.7665 81.4986 33.1625C81.4986 32.5733 81.613 32.0563 81.8417 31.6113C82.0704 31.1664 82.3923 30.8196 82.8074 30.571C83.225 30.3224 83.7147 30.1982 84.2765 30.1982C84.6544 30.1982 85.0061 30.2591 85.3317 30.3809C85.6599 30.5002 85.9457 30.6804 86.1893 30.9215C86.4354 31.1626 86.6268 31.4659 86.7636 31.8313C86.9003 32.1942 86.9686 32.6193 86.9686 33.1065V33.5428H82.1325V32.5584H85.4734C85.4734 32.3297 85.4237 32.1271 85.3243 31.9506C85.2248 31.7741 85.0869 31.6362 84.9104 31.5368C84.7364 31.4348 84.5338 31.3839 84.3026 31.3839C84.0615 31.3839 83.8477 31.4398 83.6613 31.5517C83.4773 31.661 83.3332 31.8089 83.2288 31.9954C83.1243 32.1793 83.0709 32.3844 83.0684 32.6106V33.5465C83.0684 33.8299 83.1206 34.0748 83.225 34.2811C83.3319 34.4874 83.4823 34.6465 83.6762 34.7583C83.8701 34.8702 84.1 34.9261 84.366 34.9261C84.5425 34.9261 84.7041 34.9013 84.8507 34.8516C84.9974 34.8018 85.1229 34.7273 85.2273 34.6278C85.3317 34.5284 85.4113 34.4066 85.466 34.2624L86.9351 34.3594C86.8605 34.7124 86.7076 35.0206 86.4764 35.2841C86.2478 35.5451 85.9519 35.7489 85.589 35.8956C85.2286 36.0398 84.8122 36.1119 84.3399 36.1119ZM87.7952 36V30.2727H89.3352V31.272H89.3948C89.4992 30.9165 89.6745 30.6481 89.9206 30.4666C90.1667 30.2827 90.45 30.1907 90.7707 30.1907C90.8503 30.1907 90.936 30.1957 91.028 30.2056C91.12 30.2156 91.2007 30.2292 91.2704 30.2466V31.6561C91.1958 31.6337 91.0926 31.6138 90.9609 31.5964C90.8291 31.579 90.7086 31.5703 90.5992 31.5703C90.3655 31.5703 90.1567 31.6213 89.9728 31.7232C89.7913 31.8226 89.6471 31.9618 89.5402 32.1408C89.4358 32.3198 89.3836 32.5261 89.3836 32.7598V36H87.7952ZM93.47 32.6889V36H91.8816V30.2727H93.3954V31.2832H93.4626C93.5893 30.9501 93.8019 30.6866 94.1002 30.4927C94.3985 30.2963 94.7601 30.1982 95.1852 30.1982C95.5829 30.1982 95.9297 30.2852 96.2255 30.4592C96.5213 30.6332 96.7513 30.8817 96.9153 31.2049C97.0794 31.5256 97.1614 31.9084 97.1614 32.3533V36H95.573V32.6367C95.5755 32.2862 95.486 32.0128 95.3045 31.8164C95.1231 31.6175 94.8732 31.5181 94.5551 31.5181C94.3413 31.5181 94.1524 31.5641 93.9883 31.6561C93.8267 31.748 93.6999 31.8823 93.608 32.0588C93.5185 32.2328 93.4725 32.4428 93.47 32.6889ZM99.8365 36.1081C99.4711 36.1081 99.1455 36.0447 98.8596 35.918C98.5737 35.7887 98.3475 35.5985 98.181 35.3475C98.0169 35.0939 97.9349 34.7782 97.9349 34.4004C97.9349 34.0822 97.9933 33.815 98.1101 33.5987C98.227 33.3825 98.386 33.2085 98.5874 33.0767C98.7887 32.945 99.0174 32.8455 99.2735 32.7784C99.532 32.7113 99.8029 32.6641 100.086 32.6367C100.419 32.6019 100.688 32.5696 100.892 32.5398C101.096 32.5075 101.243 32.4602 101.335 32.3981C101.427 32.3359 101.473 32.244 101.473 32.1222V32.0998C101.473 31.8636 101.399 31.6809 101.25 31.5517C101.103 31.4224 100.894 31.3578 100.623 31.3578C100.337 31.3578 100.11 31.4212 99.9409 31.5479C99.7719 31.6722 99.66 31.8288 99.6053 32.0178L98.1362 31.8984C98.2108 31.5504 98.3575 31.2496 98.5762 30.9961C98.795 30.7401 99.0771 30.5437 99.4226 30.407C99.7706 30.2678 100.173 30.1982 100.631 30.1982C100.949 30.1982 101.253 30.2354 101.544 30.31C101.838 30.3846 102.097 30.5002 102.324 30.6568C102.552 30.8134 102.732 31.0147 102.864 31.2608C102.996 31.5044 103.062 31.7965 103.062 32.1371V36H101.555V35.2058H101.511C101.419 35.3848 101.296 35.5426 101.142 35.6793C100.987 35.8136 100.802 35.9192 100.586 35.9963C100.37 36.0708 100.12 36.1081 99.8365 36.1081ZM100.291 35.0119C100.525 35.0119 100.731 34.9659 100.91 34.8739C101.089 34.7795 101.23 34.6527 101.332 34.4936C101.434 34.3345 101.485 34.1543 101.485 33.9529V33.3452C101.435 33.3775 101.367 33.4073 101.28 33.4347C101.195 33.4595 101.099 33.4831 100.992 33.5055C100.886 33.5254 100.779 33.544 100.672 33.5614C100.565 33.5763 100.468 33.59 100.381 33.6025C100.194 33.6298 100.032 33.6733 99.8924 33.733C99.7532 33.7926 99.6451 33.8734 99.568 33.9753C99.491 34.0748 99.4524 34.199 99.4524 34.3482C99.4524 34.5645 99.5308 34.7298 99.6874 34.8441C99.8464 34.956 100.048 35.0119 100.291 35.0119ZM105.673 32.6889V36H104.084V30.2727H105.598V31.2832H105.665C105.792 30.9501 106.004 30.6866 106.303 30.4927C106.601 30.2963 106.963 30.1982 107.388 30.1982C107.785 30.1982 108.132 30.2852 108.428 30.4592C108.724 30.6332 108.954 30.8817 109.118 31.2049C109.282 31.5256 109.364 31.9084 109.364 32.3533V36H107.776V32.6367C107.778 32.2862 107.689 32.0128 107.507 31.8164C107.326 31.6175 107.076 31.5181 106.758 31.5181C106.544 31.5181 106.355 31.5641 106.191 31.6561C106.029 31.748 105.903 31.8823 105.811 32.0588C105.721 32.2328 105.675 32.4428 105.673 32.6889ZM112.994 36.1119C112.407 36.1119 111.902 35.9876 111.48 35.739C111.06 35.4879 110.736 35.1399 110.51 34.695C110.287 34.25 110.175 33.7379 110.175 33.1587C110.175 32.5721 110.288 32.0575 110.514 31.6151C110.743 31.1701 111.067 30.8233 111.487 30.5748C111.907 30.3237 112.407 30.1982 112.986 30.1982C113.486 30.1982 113.923 30.2889 114.299 30.4703C114.674 30.6518 114.971 30.9066 115.19 31.2347C115.409 31.5629 115.529 31.9482 115.551 32.3906H114.053C114.01 32.1048 113.898 31.8748 113.717 31.7008C113.538 31.5243 113.303 31.4361 113.012 31.4361C112.766 31.4361 112.551 31.5032 112.367 31.6374C112.186 31.7692 112.044 31.9618 111.942 32.2154C111.84 32.4689 111.789 32.7759 111.789 33.1364C111.789 33.5018 111.839 33.8125 111.938 34.0685C112.04 34.3246 112.183 34.5197 112.367 34.6539C112.551 34.7882 112.766 34.8553 113.012 34.8553C113.194 34.8553 113.357 34.818 113.501 34.7434C113.647 34.6689 113.768 34.5607 113.862 34.419C113.959 34.2749 114.023 34.1021 114.053 33.9007H115.551C115.527 34.3382 115.407 34.7235 115.194 35.0566C114.982 35.3873 114.69 35.6458 114.317 35.8322C113.944 36.0186 113.503 36.1119 112.994 36.1119ZM118.969 36.1119C118.379 36.1119 117.872 35.9925 117.447 35.7539C117.025 35.5128 116.699 35.1722 116.47 34.7322C116.242 34.2898 116.127 33.7665 116.127 33.1625C116.127 32.5733 116.242 32.0563 116.47 31.6113C116.699 31.1664 117.021 30.8196 117.436 30.571C117.854 30.3224 118.343 30.1982 118.905 30.1982C119.283 30.1982 119.635 30.2591 119.96 30.3809C120.289 30.5002 120.574 30.6804 120.818 30.9215C121.064 31.1626 121.256 31.4659 121.392 31.8313C121.529 32.1942 121.597 32.6193 121.597 33.1065V33.5428H116.761V32.5584H120.102C120.102 32.3297 120.052 32.1271 119.953 31.9506C119.854 31.7741 119.716 31.6362 119.539 31.5368C119.365 31.4348 119.162 31.3839 118.931 31.3839C118.69 31.3839 118.476 31.4398 118.29 31.5517C118.106 31.661 117.962 31.8089 117.857 31.9954C117.753 32.1793 117.7 32.3844 117.697 32.6106V33.5465C117.697 33.8299 117.749 34.0748 117.854 34.2811C117.961 34.4874 118.111 34.6465 118.305 34.7583C118.499 34.8702 118.729 34.9261 118.995 34.9261C119.171 34.9261 119.333 34.9013 119.479 34.8516C119.626 34.8018 119.752 34.7273 119.856 34.6278C119.96 34.5284 120.04 34.4066 120.095 34.2624L121.564 34.3594C121.489 34.7124 121.336 35.0206 121.105 35.2841C120.876 35.5451 120.581 35.7489 120.218 35.8956C119.857 36.0398 119.441 36.1119 118.969 36.1119Z" fill="#38FF9C"/>
</svg>
